<svg xmlns="http://www.w3.org/2000/svg" xmlns:svg="http://www.w3.org/2000/svg" id="svg8" width="22" height="22" version="1.1" viewBox="0 0 22 22"><metadata id="metadata5"/><g id="layer1" transform="translate(0,-495.62499)"><g id="pan-start-symbolic" transform="rotate(-90,18,509.62497)"><rect id="rect1101" width="21" height="21" x="492.125" y="-31.5" fill="#373c3d" fill-opacity="1" stroke="#6c9bc9" stroke-dasharray="none" stroke-linecap="round" stroke-miterlimit="4" stroke-opacity="1" stroke-width="1" opacity="1" rx="2" ry="2" transform="rotate(90)"/><path id="path1111" fill="#fff" fill-opacity="1" fill-rule="nonzero" stroke="none" stroke-dasharray="none" stroke-dashoffset="0" stroke-linecap="round" stroke-linejoin="miter" stroke-miterlimit="4" stroke-opacity="1" stroke-width="1" d="m 28.499999,512.62498 h 1 c 0.73185,0 1.32787,-0.50269 1.46875,-1.1875 0.0132,-0.10363 0.0312,-0.2054 0.0312,-0.3125 v -17 c 0,-0.1071 -0.0181,-0.20887 -0.0312,-0.3125 -0.14088,-0.68481 -0.7369,-1.1875 -1.46875,-1.1875 h -1 c 0.83965,0 1.5,0.66035 1.5,1.5 v 17 c 0,0.83965 -0.66035,1.5 -1.5,1.5 z" baseline-shift="baseline" clip-rule="nonzero" color="#000" color-interpolation="sRGB" color-interpolation-filters="linearRGB" color-rendering="auto" direction="ltr" display="inline" dominant-baseline="auto" enable-background="accumulate" font-family="sans-serif" font-size="medium" font-stretch="normal" font-style="normal" font-variant="normal" font-weight="normal" image-rendering="auto" letter-spacing="normal" opacity=".05" overflow="visible" shape-rendering="auto" text-anchor="start" text-decoration="none" text-rendering="auto" vector-effect="none" visibility="visible" word-spacing="normal" writing-mode="lr-tb" style="line-height:normal;font-variant-ligatures:normal;font-variant-position:normal;font-variant-caps:normal;font-variant-numeric:normal;font-variant-alternates:normal;font-feature-settings:normal;text-indent:0;text-align:start;text-decoration-line:none;text-decoration-style:solid;text-decoration-color:#000;text-transform:none;text-orientation:mixed;white-space:normal;shape-padding:0;isolation:auto;mix-blend-mode:normal;solid-color:#000;solid-opacity:1"/><path id="path4389" fill="#6c9bc9" fill-opacity="1" fill-rule="nonzero" stroke="none" stroke-dasharray="none" stroke-dashoffset="0" stroke-linecap="round" stroke-linejoin="miter" stroke-miterlimit="4" stroke-opacity="1" stroke-width="1" d="m 13.499949,492.62498 h -1 c -0.73185,0 -1.32787,0.50269 -1.46875,1.1875 -0.0132,0.10363 -0.0312,0.2054 -0.0312,0.3125 v 17 c 0,0.1071 0.0181,0.20887 0.0312,0.3125 0.14088,0.68481 0.7369,1.1875 1.46875,1.1875 h 1 c -0.83965,0 -1.5,-0.66035 -1.5,-1.5 v -17 c 0,-0.83965 0.66035,-1.5 1.5,-1.5 z" baseline-shift="baseline" clip-rule="nonzero" color="#000" color-interpolation="sRGB" color-interpolation-filters="linearRGB" color-rendering="auto" direction="ltr" display="inline" dominant-baseline="auto" enable-background="accumulate" font-family="sans-serif" font-size="medium" font-stretch="normal" font-style="normal" font-variant="normal" font-weight="normal" image-rendering="auto" letter-spacing="normal" opacity=".2" overflow="visible" shape-rendering="auto" text-anchor="start" text-decoration="none" text-rendering="auto" vector-effect="none" visibility="visible" word-spacing="normal" writing-mode="lr-tb" style="line-height:normal;font-variant-ligatures:normal;font-variant-position:normal;font-variant-caps:normal;font-variant-numeric:normal;font-variant-alternates:normal;font-feature-settings:normal;text-indent:0;text-align:start;text-decoration-line:none;text-decoration-style:solid;text-decoration-color:#000;text-transform:none;text-orientation:mixed;white-space:normal;shape-padding:0;isolation:auto;mix-blend-mode:normal;solid-color:#000;solid-opacity:1"/></g></g></svg>