<svg xmlns="http://www.w3.org/2000/svg" xmlns:svg="http://www.w3.org/2000/svg" id="svg8" width="32" height="32" version="1.1" viewBox="0 0 32 32"><metadata id="metadata5"/><g id="layer1" transform="translate(0,-485.62499)"><g id="pan-start-symbolic" transform="rotate(-90,18,509.62497)"><path id="circle826" fill="#000" fill-opacity="1" stroke="none" stroke-opacity="1" stroke-width="1" d="m 521.62494,-25.999981 a 14,14 0 0 1 -14,14 14,14 0 0 1 -14,-14 14,14 0 0 1 14,-14 14,14 0 0 1 14,14 z" opacity=".2" transform="rotate(90)"/><path id="path824" fill="#417fbd" fill-opacity="1" stroke="none" stroke-opacity="1" stroke-width="1" d="m 520.62494,-25.999981 a 13,13 0 0 1 -13,13 13,13 0 0 1 -13,-13 13,13 0 0 1 13,-13 13,13 0 0 1 13,13 z" opacity="1" transform="rotate(90)"/><path dominant-baseline="auto" style="line-height:normal;font-variant-ligatures:normal;font-variant-position:normal;font-variant-caps:normal;font-variant-numeric:normal;font-variant-alternates:normal;font-feature-settings:normal;text-indent:0;text-align:start;text-decoration-line:none;text-decoration-style:solid;text-decoration-color:#000;text-transform:none;text-orientation:mixed;white-space:normal;shape-padding:0;isolation:auto;mix-blend-mode:normal;solid-color:#000;solid-opacity:1" id="path2261" fill="#ddd" fill-opacity="1" fill-rule="nonzero" stroke="none" stroke-dasharray="none" stroke-dashoffset="0" stroke-linecap="round" stroke-linejoin="miter" stroke-miterlimit="4" stroke-opacity="1" stroke-width="2" d="m 19.990234,9.9866385 c -0.263771,0.00624 -0.514391,0.1164535 -0.697265,0.3066405 L 16,13.585938 12.707398,10.293279 c -0.635815,-0.654103 -1.743686,-0.185243 -1.716796,0.726563 0.0077,0.259798 0.11632,0.506378 0.302734,0.6875 L 14.585938,15 11.293336,18.292959 c -0.193533,0.188271 -0.302718,0.446795 -0.302734,0.716797 2.36e-4,0.897417 1.090885,1.340376 1.716796,0.697265 L 16,16.414062 l 3.292969,3.292959 c 0.942508,0.98168 2.395742,-0.471554 1.414062,-1.414062 L 17.414062,15 20.707031,11.707342 c 0.65735,-0.632111 0.19491,-1.7422185 -0.716797,-1.7207035 z" baseline-shift="baseline" clip-rule="nonzero" color="#000" color-interpolation="sRGB" color-interpolation-filters="linearRGB" color-rendering="auto" direction="ltr" display="inline" enable-background="accumulate" font-family="sans-serif" font-size="medium" font-stretch="normal" font-style="normal" font-variant="normal" font-weight="normal" image-rendering="auto" letter-spacing="normal" opacity="1" overflow="visible" shape-rendering="auto" text-anchor="start" text-decoration="none" text-rendering="auto" transform="rotate(90,-224.8125,266.81247)" vector-effect="none" visibility="visible" word-spacing="normal" writing-mode="lr-tb"/><path id="path828" fill="#ddd" fill-opacity="1" fill-rule="nonzero" stroke="none" stroke-dasharray="none" stroke-dashoffset="0" stroke-linecap="round" stroke-linejoin="miter" stroke-miterlimit="4" stroke-opacity="1" stroke-width="2" d="m 31.013331,511.6152 c -0.0062,-0.26377 -0.116453,-0.51439 -0.30664,-0.69726 l -3.292659,-3.29297 3.292659,-3.2926 c 0.654103,-0.63582 0.185243,-1.74369 -0.726563,-1.7168 -0.259798,0.008 -0.506378,0.11632 -0.6875,0.30274 l -3.292658,3.2926 -3.292959,-3.2926 c -0.188271,-0.19354 -0.446795,-0.30272 -0.716797,-0.30274 -0.897417,2.4e-4 -1.340376,1.09089 -0.697265,1.7168 l 3.292959,3.2926 -3.292959,3.29297 c -0.98168,0.94251 0.471554,2.39574 1.414062,1.41406 l 3.292959,-3.29297 3.292658,3.29297 c 0.632111,0.65735 1.742218,0.19491 1.720703,-0.7168 z" baseline-shift="baseline" clip-rule="nonzero" color="#000" color-interpolation="sRGB" color-interpolation-filters="linearRGB" color-rendering="auto" direction="ltr" display="inline" dominant-baseline="auto" enable-background="accumulate" font-family="sans-serif" font-size="medium" font-stretch="normal" font-style="normal" font-variant="normal" font-weight="normal" image-rendering="auto" letter-spacing="normal" opacity=".2" overflow="visible" shape-rendering="auto" text-anchor="start" text-decoration="none" text-rendering="auto" vector-effect="none" visibility="visible" word-spacing="normal" writing-mode="lr-tb" style="line-height:normal;font-variant-ligatures:normal;font-variant-position:normal;font-variant-caps:normal;font-variant-numeric:normal;font-variant-alternates:normal;font-feature-settings:normal;text-indent:0;text-align:start;text-decoration-line:none;text-decoration-style:solid;text-decoration-color:#000;text-transform:none;text-orientation:mixed;white-space:normal;shape-padding:0;isolation:auto;mix-blend-mode:normal;solid-color:#000;solid-opacity:1"/></g></g></svg>