<svg xmlns="http://www.w3.org/2000/svg" xmlns:svg="http://www.w3.org/2000/svg" id="svg8" width="32" height="32" version="1.1" viewBox="0 0 32 32"><metadata id="metadata5"/><g id="layer1" transform="translate(0,-485.62499)"><g id="pan-start-symbolic" transform="rotate(-90,18,509.62497)"><path id="circle826" fill="#000" fill-opacity="1" stroke="none" stroke-opacity="1" stroke-width="1" d="m 25.99998,521.62497 a 14,14 0 0 1 -14,-14 14,14 0 0 1 14,-14 14,14 0 0 1 14,14 14,14 0 0 1 -14,14 z" opacity=".2"/><path id="path824" fill="#386da2" fill-opacity="1" stroke="none" stroke-opacity="1" stroke-width="1" d="m 25.99998,520.62497 a 13,13 0 0 1 -13,-13 13,13 0 0 1 13,-13 13,13 0 0 1 13,13 13,13 0 0 1 -13,13 z" opacity="1"/><path id="path2261" fill="#ddd" fill-opacity="1" fill-rule="nonzero" stroke="none" stroke-dasharray="none" stroke-dashoffset="0" stroke-linecap="round" stroke-linejoin="miter" stroke-miterlimit="4" stroke-opacity="1" stroke-width="2" d="m 32.01333,511.61523 c -0.0062,-0.26377 -0.116453,-0.51439 -0.30664,-0.69726 l -3.292659,-3.29297 3.292659,-3.2926 c 0.654103,-0.63582 0.185243,-1.74369 -0.726563,-1.7168 -0.259798,0.008 -0.506378,0.11632 -0.6875,0.30274 l -3.292658,3.2926 -3.292959,-3.2926 c -0.188271,-0.19354 -0.446795,-0.30272 -0.716797,-0.30274 -0.897417,2.4e-4 -1.340376,1.09089 -0.697265,1.7168 l 3.292959,3.2926 -3.292959,3.29297 c -0.98168,0.94251 0.471554,2.39574 1.414062,1.41406 l 3.292959,-3.29297 3.292658,3.29297 c 0.632111,0.65735 1.742218,0.19491 1.720703,-0.7168 z" baseline-shift="baseline" clip-rule="nonzero" color="#000" color-interpolation="sRGB" color-interpolation-filters="linearRGB" color-rendering="auto" direction="ltr" display="inline" dominant-baseline="auto" enable-background="accumulate" font-family="sans-serif" font-size="medium" font-stretch="normal" font-style="normal" font-variant="normal" font-weight="normal" image-rendering="auto" letter-spacing="normal" opacity="1" overflow="visible" shape-rendering="auto" text-anchor="start" text-decoration="none" text-rendering="auto" vector-effect="none" visibility="visible" word-spacing="normal" writing-mode="lr-tb" style="line-height:normal;font-variant-ligatures:normal;font-variant-position:normal;font-variant-caps:normal;font-variant-numeric:normal;font-variant-alternates:normal;font-feature-settings:normal;text-indent:0;text-align:start;text-decoration-line:none;text-decoration-style:solid;text-decoration-color:#000;text-transform:none;text-orientation:mixed;white-space:normal;shape-padding:0;isolation:auto;mix-blend-mode:normal;solid-color:#000;solid-opacity:1"/><path id="path828" fill="#ddd" fill-opacity="1" fill-rule="nonzero" stroke="none" stroke-dasharray="none" stroke-dashoffset="0" stroke-linecap="round" stroke-linejoin="miter" stroke-miterlimit="4" stroke-opacity="1" stroke-width="2" d="m 31.01334,511.61523 c -0.0062,-0.26377 -0.116453,-0.51439 -0.30664,-0.69726 L 27.414041,507.625 30.7067,504.3324 c 0.654103,-0.63582 0.185243,-1.74369 -0.726563,-1.7168 -0.259798,0.008 -0.506378,0.11632 -0.6875,0.30274 l -3.292658,3.2926 -3.292959,-3.2926 c -0.188271,-0.19354 -0.446795,-0.30272 -0.716797,-0.30274 -0.897417,2.4e-4 -1.340376,1.09089 -0.697265,1.7168 l 3.292959,3.2926 -3.292959,3.29297 c -0.98168,0.94251 0.471554,2.39574 1.414062,1.41406 l 3.292959,-3.29297 3.292658,3.29297 c 0.632111,0.65735 1.742218,0.19491 1.720703,-0.7168 z" baseline-shift="baseline" clip-rule="nonzero" color="#000" color-interpolation="sRGB" color-interpolation-filters="linearRGB" color-rendering="auto" direction="ltr" display="inline" dominant-baseline="auto" enable-background="accumulate" font-family="sans-serif" font-size="medium" font-stretch="normal" font-style="normal" font-variant="normal" font-weight="normal" image-rendering="auto" letter-spacing="normal" opacity=".2" overflow="visible" shape-rendering="auto" text-anchor="start" text-decoration="none" text-rendering="auto" vector-effect="none" visibility="visible" word-spacing="normal" writing-mode="lr-tb" style="line-height:normal;font-variant-ligatures:normal;font-variant-position:normal;font-variant-caps:normal;font-variant-numeric:normal;font-variant-alternates:normal;font-feature-settings:normal;text-indent:0;text-align:start;text-decoration-line:none;text-decoration-style:solid;text-decoration-color:#000;text-transform:none;text-orientation:mixed;white-space:normal;shape-padding:0;isolation:auto;mix-blend-mode:normal;solid-color:#000;solid-opacity:1"/></g></g></svg>