<svg xmlns="http://www.w3.org/2000/svg" xmlns:svg="http://www.w3.org/2000/svg" id="svg8" width="46" height="26" version="1.1" viewBox="0 0 46 26"><defs id="defs2"><filter id="filter1966" width="1.072" height="1.072" x="-.036" y="-.036" color-interpolation-filters="sRGB"><feGaussianBlur id="feGaussianBlur1968" stdDeviation=".36"/></filter></defs><metadata id="metadata5"/><g id="layer1" transform="translate(0,-491.62499)"><g id="pan-start-symbolic" transform="rotate(-90,18,509.62497)"><rect id="rect925" width="43" height="23" x="493.125" y="-34.5" fill="#2f3435" fill-opacity="1" stroke="#212525" stroke-dasharray="none" stroke-linecap="round" stroke-linejoin="miter" stroke-miterlimit="4" stroke-opacity="1" stroke-width="1" opacity="1" rx="11.5" ry="11.5" transform="rotate(90)"/><rect id="rect830" width="24" height="24" x="492.625" y="-35" fill="#000" fill-opacity="1" stroke="none" stroke-dasharray="none" stroke-linecap="square" stroke-linejoin="round" stroke-miterlimit="4" stroke-opacity="1" stroke-width="1" filter="url(#filter1966)" opacity=".2" rx="12" ry="12" transform="rotate(90)"/><rect id="rect826" width="23" height="23" x="493.125" y="-34.5" fill="#3f4546" fill-opacity="1" stroke="#212525" stroke-dasharray="none" stroke-linecap="square" stroke-linejoin="round" stroke-miterlimit="4" stroke-opacity="1" stroke-width="1" opacity="1" rx="11.5" ry="11.5" transform="rotate(90)"/><path id="path2531" fill="#fff" fill-opacity="1" fill-rule="nonzero" stroke="none" stroke-dasharray="none" stroke-dashoffset="0" stroke-linecap="square" stroke-linejoin="round" stroke-miterlimit="4" stroke-opacity="1" stroke-width="1" d="m 33.99997,504.62497 c 0,-0.38418 -0.0207,-0.76302 -0.05859,-1.13672 -0.564071,-5.56256 -5.222932,-9.86328 -10.941406,-9.86328 -0.168937,0 -0.332989,0.018 -0.5,0.0254 5.866077,0.26089 10.5,5.0409 10.5,10.97461 0,5.93371 -4.633923,10.71372 -10.5,10.97461 0.167011,0.007 0.331063,0.0254 0.5,0.0254 5.718474,0 10.377335,-4.30072 10.941406,-9.86328 0.03507,-0.37462 0.05859,-0.75275 0.05859,-1.13672 z" baseline-shift="baseline" clip-rule="nonzero" color="#000" color-interpolation="sRGB" color-interpolation-filters="linearRGB" color-rendering="auto" direction="ltr" display="inline" dominant-baseline="auto" enable-background="accumulate" font-family="sans-serif" font-size="medium" font-stretch="normal" font-style="normal" font-variant="normal" font-weight="normal" image-rendering="auto" letter-spacing="normal" opacity=".05" overflow="visible" shape-rendering="auto" text-anchor="start" text-decoration="none" text-rendering="auto" vector-effect="none" visibility="visible" word-spacing="normal" writing-mode="lr-tb" style="line-height:normal;font-variant-ligatures:normal;font-variant-position:normal;font-variant-caps:normal;font-variant-numeric:normal;font-variant-alternates:normal;font-feature-settings:normal;text-indent:0;text-align:start;text-decoration-line:none;text-decoration-style:solid;text-decoration-color:#000;text-transform:none;text-orientation:mixed;white-space:normal;shape-padding:0;isolation:auto;mix-blend-mode:normal;solid-color:#000;solid-opacity:1"/></g></g></svg>