<svg xmlns="http://www.w3.org/2000/svg" xmlns:svg="http://www.w3.org/2000/svg" id="svg8" width="46" height="26" version="1.1" viewBox="0 0 46 26"><defs id="defs2"><filter id="filter2570" width="1.072" height="1.072" x="-.036" y="-.036" color-interpolation-filters="sRGB"><feGaussianBlur id="feGaussianBlur2572" stdDeviation=".33"/></filter></defs><metadata id="metadata5"/><g id="layer1" transform="translate(0,-491.62499)"><g id="pan-start-symbolic" transform="rotate(-90,18,509.62497)"><rect id="rect983" width="45" height="25" x="492.125" y="-35.5" fill="none" fill-opacity="1" stroke="#333839" stroke-dasharray="none" stroke-linecap="round" stroke-linejoin="miter" stroke-miterlimit="4" stroke-opacity="1" stroke-width="1" opacity="1" rx="12.5" ry="12.5" transform="rotate(90)"/><rect id="rect925" width="43" height="23" x="493.125" y="-34.5" fill="#417fbd" fill-opacity="1" stroke="#417fbd" stroke-dasharray="none" stroke-linecap="round" stroke-linejoin="miter" stroke-miterlimit="4" stroke-opacity="1" stroke-width="1" opacity="1" rx="11.5" ry="11.5" transform="rotate(90)"/><rect id="rect939" width="22" height="22" x="511.625" y="-33" fill="#000" fill-opacity="1" stroke="none" stroke-dasharray="none" stroke-linecap="square" stroke-linejoin="round" stroke-miterlimit="4" stroke-opacity="1" stroke-width="1" filter="url(#filter2570)" opacity=".2" rx="11" ry="11" transform="rotate(90,-1,1)"/><rect id="rect826" width="22" height="22" x="513.625" y="-34" fill="#3f4546" fill-opacity="1" stroke="none" stroke-dasharray="none" stroke-linecap="square" stroke-linejoin="round" stroke-miterlimit="4" stroke-opacity="1" stroke-width="1" opacity="1" rx="11" ry="11" transform="rotate(90)"/><path id="rect2576" fill="#fff" fill-opacity="1" stroke="none" stroke-dasharray="none" stroke-linecap="square" stroke-linejoin="round" stroke-miterlimit="4" stroke-opacity="1" stroke-width="1" d="M 33 2 C 26.906 2 22 6.906 22 13 C 22 13.168989 22.017925 13.332918 22.025391 13.5 C 22.287156 7.6418288 27.074989 3 33 3 C 38.925011 3 43.712844 7.6418288 43.974609 13.5 C 43.982075 13.332918 44 13.168989 44 13 C 44 6.906 39.094 2 33 2 z" opacity=".05" transform="rotate(90,-227.8125,263.81247)"/></g></g></svg>