<svg xmlns="http://www.w3.org/2000/svg" xmlns:svg="http://www.w3.org/2000/svg" id="svg8" width="16" height="16" version="1.1" viewBox="0 0 16 16"><metadata id="metadata5"/><g id="layer1" transform="translate(-70,-475.62499)"><g id="window-close-symbolic" transform="rotate(-180,48,491.62498)"><path id="path5227" fill="#000" fill-opacity="1" fill-rule="nonzero" stroke="none" stroke-dasharray="none" stroke-dashoffset="0" stroke-linecap="round" stroke-linejoin="miter" stroke-miterlimit="4" stroke-opacity="1" stroke-width="1" d="m 81.525391,277.98438 c -0.126696,-0.006 -0.261091,0.0395 -0.378907,0.1621 l -3.142578,3.14258 -3.15039,-3.15234 c -0.31781,-0.32886 -0.873815,-0.0938 -0.859375,0.36328 0.004,0.13004 0.0588,0.25335 0.152343,0.34375 l 3.150391,3.15234 -3.150391,3.15039 c -0.328858,0.31781 -0.09382,0.87382 0.363282,0.85938 0.130038,-0.004 0.253348,-0.0588 0.34375,-0.15234 l 3.15039,-3.1504 3.142578,3.14063 c 0.47126,0.4905 1.197532,-0.23577 0.707032,-0.70703 l -3.142578,-3.14063 3.142578,-3.14257 c 0.367879,-0.35345 0.05196,-0.84972 -0.328125,-0.86914 z" baseline-shift="baseline" clip-rule="nonzero" color="#000" color-interpolation="sRGB" color-interpolation-filters="linearRGB" color-rendering="auto" direction="ltr" display="inline" dominant-baseline="auto" enable-background="accumulate" font-family="sans-serif" font-size="medium" font-stretch="normal" font-style="normal" font-variant="normal" font-weight="normal" image-rendering="auto" letter-spacing="normal" opacity="1" overflow="visible" shape-rendering="auto" text-anchor="start" text-decoration="none" text-rendering="auto" transform="rotate(180,48,390.81247)" vector-effect="none" visibility="visible" word-spacing="normal" writing-mode="lr-tb" style="line-height:normal;font-variant-ligatures:normal;font-variant-position:normal;font-variant-caps:normal;font-variant-numeric:normal;font-variant-alternates:normal;font-feature-settings:normal;text-indent:0;text-align:start;text-decoration-line:none;text-decoration-style:solid;text-decoration-color:#000;text-transform:none;text-orientation:mixed;white-space:normal;shape-padding:0;isolation:auto;mix-blend-mode:normal;solid-color:#000;solid-opacity:1"/></g></g></svg>